<?xml version="1.0" ?><svg height="297mm" id="svg2" version="1.1" viewBox="0 0 744.09448819 1052.3622047" width="210mm" xmlns="http://www.w3.org/2000/svg" xmlns:cc="http://creativecommons.org/ns#" xmlns:dc="http://purl.org/dc/elements/1.1/" xmlns:inkscape="http://www.inkscape.org/namespaces/inkscape" xmlns:rdf="http://www.w3.org/1999/02/22-rdf-syntax-ns#" xmlns:sodipodi="http://sodipodi.sourceforge.net/DTD/sodipodi-0.dtd" xmlns:svg="http://www.w3.org/2000/svg"><defs id="defs4"><filter id="filter4492" style="color-interpolation-filters:sRGB;"><feOffset dx="3" dy="3" id="feOffset4494"/><feGaussianBlur id="feGaussianBlur4496" result="blur" stdDeviation="3"/><feFlood flood-color="rgb(0,0,0)" flood-opacity="1" id="feFlood4498" result="flood"/><feComposite id="feComposite4500" in="flood" in2="SourceGraphic" operator="in" result="composite"/><feBlend id="feBlend4502" in="blur" in2="composite" mode="normal"/></filter><filter id="filter4527" style="color-interpolation-filters:sRGB;"><feMorphology id="feMorphology4529" in="SourceAlpha" operator="dilate" radius="3.6" result="result1"/><feGaussianBlur id="feGaussianBlur4531" in="result1" result="result0" stdDeviation="3.6"/><feDiffuseLighting id="feDiffuseLighting4533" surfaceScale="-5"><feDistantLight azimuth="225" elevation="45" id="feDistantLight4535"/></feDiffuseLighting><feComposite id="feComposite4537" in2="result0" operator="in" result="result91"/><feComposite id="feComposite4539" in="SourceGraphic" in2="result91"/></filter><filter id="filter4173" style="color-interpolation-filters:sRGB;"><feGaussianBlur id="feGaussianBlur4175" in="SourceGraphic" result="result1" stdDeviation="1.3"/><feTurbulence baseFrequency="0.034" id="feTurbulence4177" numOctaves="4" result="result0"/><feDisplacementMap id="feDisplacementMap4179" in="result1" in2="result0" result="result2" scale="19.6" xChannelSelector="R" yChannelSelector="G"/><feColorMatrix id="feColorMatrix4181" result="result3" values="2 0 0 0 0 0 2 0 0 0 0 0 2 0 0 0 0 0 0.7 0"/><feGaussianBlur id="feGaussianBlur4183" in="SourceGraphic" result="result4" stdDeviation="1.1"/><feComposite id="feComposite4185" in="result4" in2="result3"/></filter></defs><g id="layer1"><path d="M 763.25067,468.07651 A 330.39352,324.67926 0 0 1 432.85715,792.75577 330.39352,324.67926 0 0 1 102.46362,468.07651 330.39352,324.67926 0 0 1 432.85715,143.39725 330.39352,324.67926 0 0 1 763.25067,468.07651 Z" id="path4158" style="fill:#127bb9;fill-opacity:1;stroke:#060000;stroke-width:22.67812157;stroke-linecap:round;stroke-linejoin:round;stroke-miterlimit:4;stroke-dasharray:none;stroke-opacity:1;filter:url(#filter4492)" transform="matrix(0.87661691,0,0,0.88722954,13.407256,102.78521)"/><g id="flowRoot4167" style="font-style:normal;font-variant:normal;font-weight:100;font-stretch:normal;font-size:40.00002289px;line-height:125%;font-family:'AR CENA';-inkscape-font-specification:'AR CENA, Thin';text-align:start;letter-spacing:0px;word-spacing:0px;writing-mode:lr-tb;text-anchor:start;fill:#ffffff;fill-opacity:1;stroke:#000000;stroke-width:1.17660105;stroke-linecap:butt;stroke-linejoin:miter;stroke-miterlimit:4;stroke-dasharray:none;stroke-opacity:1" transform="matrix(13.74927,0,0,13.476987,16266.572,-2861.0822)"><path d="m -1161.7148,262.98325 q -1.4,0 -2.04,-1.24 -0.48,-0.92 -0.48,-2.52 0,-2.04 0.32,-6.16 0.32,-4.12 0.32,-6.24001 0,-0.24 -0.12,-0.76 -0.12,-0.52 -0.12,-0.76 0,-0.72 0.8,-1.08 0.84,-0.36 1.68,-0.36 0.92,0 1.44,0.4 0.56,0.4 0.56,1.28 0,1.72 -0.44,5.92001 -0.44,4.2 -0.44,6.36 0,0.6 0.12,1.4 0.28,1.88 0.28,2.28 0,0.64 -0.6,1.08 -0.6,0.4 -1.28,0.4 z m 0.36,-25.32001 q 1.04,0 1.96,0.56 0.92,0.56 0.92,1.56 0,0.88 -0.68,1.36 -0.64,0.48 -1.56,0.48 -1.12,0 -2.04,-0.6 -0.92,-0.6 -0.92,-1.64 0,-0.8 0.76,-1.24 0.76,-0.48 1.56,-0.48 z" id="path4176" style=""/><path d="m -1146.1136,244.02324 q 1.92,0 2.64,3.52 0.4,1.96001 0.4,5.08001 l 0,1.6 q 0,3.6 -0.36,5.52 -0.6,3.24 -2.2,3.24 -0.72,0 -1.44,-0.52 -0.68,-0.52 -0.68,-1.2 0,-1 0.36,-3.16 0.36,-2.16 0.36,-3.28 0,-1.68 -0.04,-2.24 -0.16,-2 -0.6,-2 -1.92,1.2 -3.36,4.84 -1.4,3.6 -1.4,6.24 0,0.64 -0.68,1.08 -0.64,0.4 -1.32,0.4 -1.04,0 -1.44,-0.88 -0.36,-0.88 -0.36,-2.08 0,-1.96 0.56,-7.8 0.28,-2.92 0.28,-4.68001 0,-0.52 -0.24,-1.48 -0.2,-0.96 -0.2,-1.24 0,-0.72 0.8,-1.08 0.8,-0.4 1.56,-0.4 1.16,0 1.68,1.08 0.4,0.84 0.4,2.44 0,0.76001 -0.12,2.04001 -0.12,1.28 -0.12,1.64 1.32,-2.72 2.16,-4.00001 1.8,-2.68 3.36,-2.68 z" id="path4178" style=""/></g></g></svg>